<svg width="207" height="53" viewBox="0 0 207 53" fill="none" xmlns="http://www.w3.org/2000/svg">
<path d="M46.9697 8H84.8485V45.8788H46.9697V8Z" fill="#FF5555"/>
<circle cx="105.303" cy="26.9394" r="18.9394" fill="#7EE8FF"/>
<path d="M0 45.8788L23.4488 8L45.4545 45.8788H0Z" fill="#FFF066"/>
<path d="M151.16 12.44C151.293 12.1467 151.48 11.92 151.72 11.76C151.987 11.6 152.267 11.52 152.56 11.52C152.987 11.52 153.36 11.6667 153.68 11.96C154.027 12.2267 154.2 12.56 154.2 12.96C154.2 13.1733 154.147 13.3867 154.04 13.6L142.56 39.12C142.4 39.4667 142.16 39.7333 141.84 39.92C141.52 40.1067 141.173 40.2 140.8 40.2C140.427 40.2 140.08 40.1067 139.76 39.92C139.44 39.7333 139.2 39.4667 139.04 39.12L127.6 13.6C127.52 13.3867 127.48 13.1867 127.48 13C127.48 12.5733 127.653 12.2267 128 11.96C128.347 11.6667 128.733 11.52 129.16 11.52C129.8 11.52 130.267 11.8267 130.56 12.44L140.88 35.76L151.16 12.44ZM159.776 40.2C159.27 40.2 158.87 40.0533 158.576 39.76C158.283 39.44 158.136 39.0267 158.136 38.52V13.28C158.136 12.7733 158.283 12.3733 158.576 12.08C158.87 11.76 159.27 11.6 159.776 11.6C160.283 11.6 160.683 11.76 160.976 12.08C161.27 12.3733 161.416 12.7733 161.416 13.28V38.52C161.416 39.0267 161.27 39.44 160.976 39.76C160.683 40.0533 160.283 40.2 159.776 40.2ZM180.331 40.32C177.664 40.32 175.357 39.7467 173.411 38.6C171.464 37.4267 169.957 35.76 168.891 33.6C167.851 31.4133 167.331 28.84 167.331 25.88C167.331 22.9467 167.851 20.4 168.891 18.24C169.957 16.0533 171.464 14.3867 173.411 13.24C175.357 12.0667 177.664 11.48 180.331 11.48C182.117 11.48 183.797 11.7733 185.371 12.36C186.971 12.92 188.357 13.7333 189.531 14.8C189.957 15.2 190.171 15.6667 190.171 16.2C190.171 16.5733 190.064 16.9067 189.851 17.2C189.637 17.4667 189.384 17.6 189.091 17.6C188.771 17.6 188.384 17.4533 187.931 17.16C186.571 16.0933 185.331 15.3467 184.211 14.92C183.117 14.4933 181.851 14.28 180.411 14.28C177.317 14.28 174.931 15.2933 173.251 17.32C171.597 19.32 170.771 22.1733 170.771 25.88C170.771 29.6133 171.597 32.4933 173.251 34.52C174.931 36.52 177.317 37.52 180.411 37.52C181.824 37.52 183.091 37.3067 184.211 36.88C185.331 36.4533 186.571 35.7067 187.931 34.64C188.384 34.3467 188.771 34.2 189.091 34.2C189.384 34.2 189.637 34.3333 189.851 34.6C190.064 34.8667 190.171 35.2 190.171 35.6C190.171 36.1333 189.957 36.6 189.531 37C188.357 38.0667 186.971 38.8933 185.371 39.48C183.797 40.04 182.117 40.32 180.331 40.32ZM197.081 40.2C196.574 40.2 196.174 40.0533 195.881 39.76C195.588 39.44 195.441 39.0267 195.441 38.52V13.28C195.441 12.7733 195.588 12.3733 195.881 12.08C196.174 11.76 196.574 11.6 197.081 11.6C197.588 11.6 197.988 11.76 198.281 12.08C198.574 12.3733 198.721 12.7733 198.721 13.28V38.52C198.721 39.0267 198.574 39.44 198.281 39.76C197.988 40.0533 197.588 40.2 197.081 40.2Z" fill="black"/>
</svg>
